<svg id="visual" viewBox="0 0 900 600" width="900" height="600" xmlns="http://www.w3.org/2000/svg" xmlns:xlink="http://www.w3.org/1999/xlink" version="1.1"><g stroke-width="1" stroke-linejoin="bevel"><path d="M464 305L546.5 382L544.5 284Z" fill="#09669c" stroke="#09669c"></path><path d="M464 305L448 422L546.5 382Z" fill="#095d8e" stroke="#095d8e"></path><path d="M704 318L580.5 215L544.5 284Z" fill="#084267" stroke="#084267"></path><path d="M544.5 284L421 214L464 305Z" fill="#001220" stroke="#001220"></path><path d="M448 422L553.5 477L546.5 382Z" fill="#041a2b" stroke="#041a2b"></path><path d="M546.5 382L686 373L544.5 284Z" fill="#06324e" stroke="#06324e"></path><path d="M580.5 215L421 214L544.5 284Z" fill="#073a5a" stroke="#073a5a"></path><path d="M464 305L367.5 402L448 422Z" fill="#062a42" stroke="#062a42"></path><path d="M322.5 273L367.5 402L464 305Z" fill="#06324e" stroke="#06324e"></path><path d="M448 422L466 523L553.5 477Z" fill="#073a5a" stroke="#073a5a"></path><path d="M553.5 477L686 373L546.5 382Z" fill="#09669c" stroke="#09669c"></path><path d="M686 373L704 318L544.5 284Z" fill="#09669c" stroke="#09669c"></path><path d="M348.5 497L466 523L448 422Z" fill="#095d8e" stroke="#095d8e"></path><path d="M421 214L322.5 273L464 305Z" fill="#041a2b" stroke="#041a2b"></path><path d="M553.5 477L680 485L686 373Z" fill="#084b74" stroke="#084b74"></path><path d="M778.5 378L776.5 301L704 318Z" fill="#052236" stroke="#052236"></path><path d="M546.5 600L680 485L553.5 477Z" fill="#085481" stroke="#085481"></path><path d="M249 425L348.5 497L367.5 402Z" fill="#09669c" stroke="#09669c"></path><path d="M367.5 402L348.5 497L448 422Z" fill="#001220" stroke="#001220"></path><path d="M704 318L705 187L580.5 215Z" fill="#062a42" stroke="#062a42"></path><path d="M357.5 90L323.5 184L421 214Z" fill="#084267" stroke="#084267"></path><path d="M421 214L323.5 184L322.5 273Z" fill="#084267" stroke="#084267"></path><path d="M440 89L421 214L580.5 215Z" fill="#001220" stroke="#001220"></path><path d="M583.5 73L440 89L580.5 215Z" fill="#001220" stroke="#001220"></path><path d="M704 318L776.5 301L705 187Z" fill="#09669c" stroke="#09669c"></path><path d="M778.5 378L704 318L686 373Z" fill="#085481" stroke="#085481"></path><path d="M680 485L778.5 378L686 373Z" fill="#084b74" stroke="#084b74"></path><path d="M465 600L546.5 600L466 523Z" fill="#084267" stroke="#084267"></path><path d="M466 523L546.5 600L553.5 477Z" fill="#06324e" stroke="#06324e"></path><path d="M705 187L583.5 73L580.5 215Z" fill="#001220" stroke="#001220"></path><path d="M351.5 600L465 600L466 523Z" fill="#06324e" stroke="#06324e"></path><path d="M322.5 273L249 425L367.5 402Z" fill="#001220" stroke="#001220"></path><path d="M348.5 497L351.5 600L466 523Z" fill="#062a42" stroke="#062a42"></path><path d="M227 292L249 425L322.5 273Z" fill="#06324e" stroke="#06324e"></path><path d="M341.5 0L357.5 90L440 89Z" fill="#084b74" stroke="#084b74"></path><path d="M440 89L357.5 90L421 214Z" fill="#085481" stroke="#085481"></path><path d="M229 179L322.5 273L323.5 184Z" fill="#084267" stroke="#084267"></path><path d="M229 179L227 292L322.5 273Z" fill="#041a2b" stroke="#041a2b"></path><path d="M705 187L693 84L583.5 73Z" fill="#001220" stroke="#001220"></path><path d="M777.5 96L693 84L705 187Z" fill="#095d8e" stroke="#095d8e"></path><path d="M692 600L761.5 524L680 485Z" fill="#085481" stroke="#085481"></path><path d="M680 485L761.5 524L778.5 378Z" fill="#001220" stroke="#001220"></path><path d="M231 600L351.5 600L348.5 497Z" fill="#06324e" stroke="#06324e"></path><path d="M96.5 419L235 485L249 425Z" fill="#084b74" stroke="#084b74"></path><path d="M249 425L235 485L348.5 497Z" fill="#052236" stroke="#052236"></path><path d="M546.5 600L692 600L680 485Z" fill="#041a2b" stroke="#041a2b"></path><path d="M900 318L800.5 181L776.5 301Z" fill="#073a5a" stroke="#073a5a"></path><path d="M776.5 301L800.5 181L705 187Z" fill="#095d8e" stroke="#095d8e"></path><path d="M213 73L229 179L323.5 184Z" fill="#073a5a" stroke="#073a5a"></path><path d="M680 0L549.5 0L583.5 73Z" fill="#085481" stroke="#085481"></path><path d="M583.5 73L549.5 0L440 89Z" fill="#001220" stroke="#001220"></path><path d="M549.5 0L464 0L440 89Z" fill="#09669c" stroke="#09669c"></path><path d="M357.5 90L213 73L323.5 184Z" fill="#09669c" stroke="#09669c"></path><path d="M800.5 181L777.5 96L705 187Z" fill="#084267" stroke="#084267"></path><path d="M693 84L680 0L583.5 73Z" fill="#085481" stroke="#085481"></path><path d="M801.5 0L680 0L693 84Z" fill="#084b74" stroke="#084b74"></path><path d="M464 0L341.5 0L440 89Z" fill="#095d8e" stroke="#095d8e"></path><path d="M900 391L900 318L778.5 378Z" fill="#09669c" stroke="#09669c"></path><path d="M778.5 378L900 318L776.5 301Z" fill="#085481" stroke="#085481"></path><path d="M692 600L783.5 600L761.5 524Z" fill="#06324e" stroke="#06324e"></path><path d="M800.5 181L900 85L777.5 96Z" fill="#084b74" stroke="#084b74"></path><path d="M900 391L778.5 378L900 495Z" fill="#073a5a" stroke="#073a5a"></path><path d="M119.5 600L231 600L235 485Z" fill="#073a5a" stroke="#073a5a"></path><path d="M235 485L231 600L348.5 497Z" fill="#041a2b" stroke="#041a2b"></path><path d="M900 495L778.5 378L761.5 524Z" fill="#062a42" stroke="#062a42"></path><path d="M229 179L119.5 281L227 292Z" fill="#084b74" stroke="#084b74"></path><path d="M227 292L96.5 419L249 425Z" fill="#06324e" stroke="#06324e"></path><path d="M106.5 205L119.5 281L229 179Z" fill="#095d8e" stroke="#095d8e"></path><path d="M341.5 0L213 73L357.5 90Z" fill="#095d8e" stroke="#095d8e"></path><path d="M900 318L900 181L800.5 181Z" fill="#09669c" stroke="#09669c"></path><path d="M777.5 96L801.5 0L693 84Z" fill="#095d8e" stroke="#095d8e"></path><path d="M783.5 600L900 495L761.5 524Z" fill="#084267" stroke="#084267"></path><path d="M119.5 281L96.5 419L227 292Z" fill="#084267" stroke="#084267"></path><path d="M125.5 80L106.5 205L229 179Z" fill="#084267" stroke="#084267"></path><path d="M119.5 281L0 324L96.5 419Z" fill="#084267" stroke="#084267"></path><path d="M900 85L801.5 0L777.5 96Z" fill="#062a42" stroke="#062a42"></path><path d="M96.5 419L95.5 473L235 485Z" fill="#09669c" stroke="#09669c"></path><path d="M341.5 0L214 0L213 73Z" fill="#062a42" stroke="#062a42"></path><path d="M213 73L125.5 80L229 179Z" fill="#084267" stroke="#084267"></path><path d="M900 181L900 85L800.5 181Z" fill="#073a5a" stroke="#073a5a"></path><path d="M214 0L125.5 80L213 73Z" fill="#073a5a" stroke="#073a5a"></path><path d="M783.5 600L900 600L900 495Z" fill="#084b74" stroke="#084b74"></path><path d="M95.5 473L119.5 600L235 485Z" fill="#09669c" stroke="#09669c"></path><path d="M900 85L900 0L801.5 0Z" fill="#084b74" stroke="#084b74"></path><path d="M0 171L0 324L106.5 205Z" fill="#001220" stroke="#001220"></path><path d="M106.5 205L0 324L119.5 281Z" fill="#06324e" stroke="#06324e"></path><path d="M96.5 419L0 424L95.5 473Z" fill="#085481" stroke="#085481"></path><path d="M95.5 473L0 513L119.5 600Z" fill="#062a42" stroke="#062a42"></path><path d="M214 0L114.5 0L125.5 80Z" fill="#085481" stroke="#085481"></path><path d="M0 124L0 171L106.5 205Z" fill="#06324e" stroke="#06324e"></path><path d="M0 324L0 424L96.5 419Z" fill="#06324e" stroke="#06324e"></path><path d="M0 124L106.5 205L125.5 80Z" fill="#084b74" stroke="#084b74"></path><path d="M0 424L0 513L95.5 473Z" fill="#085481" stroke="#085481"></path><path d="M0 0L0 124L125.5 80Z" fill="#073a5a" stroke="#073a5a"></path><path d="M0 513L0 600L119.5 600Z" fill="#062a42" stroke="#062a42"></path><path d="M114.5 0L0 0L125.5 80Z" fill="#062a42" stroke="#062a42"></path></g></svg>